<svg width="96" height="32" viewBox="0 0 96 32" fill="none" xmlns="http://www.w3.org/2000/svg">
<path d="M7.03043 11.5962C11.7908 11.5962 13.5526 9.19872 13.5526 7.02232C13.5526 6.98831 13.5526 6.86929 13.5357 6.78427H10.6388V6.88629C10.6388 8.12752 9.4699 9.18172 7.16595 9.18172C4.47237 9.18172 3.42204 7.60042 3.42204 5.81509C3.42204 3.89373 4.70954 2.41445 7.14901 2.41445C9.5546 2.41445 10.588 3.7237 10.588 4.76089V4.82891H13.4849C13.5018 4.72689 13.5018 4.59086 13.5018 4.55685C13.5018 2.6865 11.9094 0 6.99655 0C2.35477 0 0 2.49947 0 5.81509C0 8.70563 1.7449 11.5962 7.03043 11.5962Z" fill="#141414"/>
<path d="M41.0868 11.3921H44.2378V3.16259H44.2548L51.5224 11.3921H54.7411V0.204038H51.5901V6.9373H51.5732L45.627 0.204038H41.0868V11.3921Z" fill="#141414"/>
<path d="M56.671 11.3921H59.822V3.16259H59.839L67.1066 11.3921H70.3253V0.204038H67.1743V6.9373H67.1574L61.2112 0.204038H56.671V11.3921Z" fill="#141414"/>
<path d="M72.2552 11.3921H82.9618V8.97768H75.5079V6.71626H81.0983V4.8119H75.5079V2.61849H82.7924V0.204038H72.2552V11.3921Z" fill="#141414"/>
<path d="M88.3597 11.3921H91.6123V2.61849H96V0.204038H83.972V2.61849H88.3597V11.3921Z" fill="#141414"/>
<path d="M7.03043 32C11.7908 32 13.5526 29.6026 13.5526 27.4261C13.5526 27.3921 13.5526 27.2731 13.5357 27.1881H10.6388V27.2901C10.6388 28.5313 9.4699 29.5855 7.16595 29.5855C4.47237 29.5855 3.42204 28.0042 3.42204 26.2189C3.42204 24.2976 4.70954 22.8183 7.14901 22.8183C9.5546 22.8183 10.588 24.1275 10.588 25.1647V25.2327H13.4849C13.5018 25.1307 13.5018 24.9947 13.5018 24.9607C13.5018 23.0903 11.9094 20.4038 6.99655 20.4038C2.35477 20.4038 0 22.9033 0 26.2189C0 29.1095 1.7449 32 7.03043 32Z" fill="#141414"/>
<path d="M15.1132 31.796H18.3658V27.7662H22.3977C23.7868 27.7662 24.2273 28.2933 24.2273 29.4495V31.796H27.4799V29.4495C27.4799 28.2763 27.2936 27.0351 25.5318 26.627V26.593C27.0734 26.1339 27.5477 25.0457 27.5477 23.9235C27.5477 21.9171 26.2602 20.6079 22.1267 20.6079H15.1132V31.796ZM18.3658 25.8618V23.0223H21.9911C23.8716 23.0223 24.4645 23.6004 24.4645 24.3996C24.4645 25.2667 23.8885 25.8618 22.2791 25.8618H18.3658Z" fill="#141414"/>
<path d="M29.44 31.796H40.1466V29.3815H32.6927V27.1201H38.2831V25.2157H32.6927V23.0223H39.9772V20.6079H29.44V31.796Z" fill="#141414"/>
<path d="M53.2864 31.796H57.0642L50.9994 20.6079H47.1369L41.0721 31.796H44.4264L45.5784 29.5175H52.1345L53.2864 31.796ZM46.5271 27.6132L48.831 23.0563H48.848L51.1689 27.6132H46.5271Z" fill="#141414"/>
<path d="M59.342 31.796H62.5946V23.0223H66.9823V20.6079H54.9543V23.0223H59.342V31.796Z" fill="#141414"/>
<path d="M74.6349 32C79.8357 32 81.9533 29.3305 81.9533 26.1509C81.9533 23.0563 79.6663 20.4038 74.6349 20.4038C69.6035 20.4038 67.3165 23.0563 67.3165 26.1509C67.3165 29.5005 69.5865 32 74.6349 32ZM74.6349 29.5855C71.9752 29.5855 70.7385 28.1743 70.7385 26.1679C70.7385 24.3486 71.9921 22.8183 74.6349 22.8183C77.2776 22.8183 78.5313 24.3486 78.5313 26.1679C78.5313 28.0893 77.3624 29.5855 74.6349 29.5855Z" fill="#141414"/>
<path d="M83.505 31.796H86.7576V27.7662H90.7895C92.1787 27.7662 92.6191 28.2933 92.6191 29.4495V31.796H95.8718V29.4495C95.8718 28.2763 95.6854 27.0351 93.9236 26.627V26.593C95.4652 26.1339 95.9395 25.0457 95.9395 23.9235C95.9395 21.9171 94.652 20.6079 90.5185 20.6079H83.505V31.796ZM86.7576 25.8618V23.0223H90.3829C92.2634 23.0223 92.8563 23.6004 92.8563 24.3996C92.8563 25.2667 92.2803 25.8618 90.6709 25.8618H86.7576Z" fill="#141414"/>
<path fill-rule="evenodd" clip-rule="evenodd" d="M32.6175 11.5962C37.649 11.5962 39.936 8.94368 39.936 5.8491C39.936 2.49947 37.6659 1.11245e-06 32.6175 6.69482e-07L24.9877 0V1.37094e-05H22.0588C17.0274 1.37094e-05 14.7404 2.65251 14.7404 5.74709C14.7404 9.09672 17.0105 11.5962 22.0588 11.5962H29.6887V11.5962H32.6175ZM24.9877 9.18173V9.18172L32.6175 9.18172C35.2603 9.18172 36.5139 7.65144 36.5139 5.83209C36.5139 3.82572 35.2773 2.41445 32.6175 2.41445L29.6887 2.41445V2.41447H22.0588C19.4161 2.41447 18.1625 3.94475 18.1625 5.76409C18.1625 7.77047 19.3991 9.18173 22.0588 9.18173H24.9877Z" fill="url(#paint0_linear)"/>
<defs>
<linearGradient id="paint0_linear" x1="39.8108" y1="5.95112" x2="14.8231" y2="5.95112" gradientUnits="userSpaceOnUse">
<stop stop-color="#F22C2D"/>
<stop offset="1" stop-color="#876EFF"/>
</linearGradient>
</defs>
</svg>
