<svg width="16" height="11" viewBox="0 0 16 11" fill="none" xmlns="http://www.w3.org/2000/svg">
<path d="M0 3C0.0520833 3 0.122396 3.0026 0.210938 3.00781C0.299479 3.00781 0.390625 3.01042 0.484375 3.01562C0.583333 3.01562 0.674479 3.01562 0.757812 3.01562C0.841146 3.01562 0.90625 3.01042 0.953125 3L15 0.5C15.0469 0.494792 15.1146 0.492188 15.2031 0.492188C15.2917 0.486979 15.3854 0.486979 15.4844 0.492188C15.5885 0.492188 15.6849 0.494792 15.7734 0.5C15.8672 0.5 15.9427 0.5 16 0.5V9.5C15.9427 9.5 15.862 9.5026 15.7578 9.50781C15.6589 9.50781 15.5547 9.50781 15.4453 9.50781C15.3359 9.50781 15.2318 9.50781 15.1328 9.50781C15.0339 9.50781 14.9609 9.5026 14.9141 9.49219L8.95312 8.42969C8.90104 8.72656 8.79948 9.0026 8.64844 9.25781C8.5026 9.51302 8.32031 9.73177 8.10156 9.91406C7.88281 10.0964 7.63542 10.2396 7.35938 10.3438C7.08854 10.4479 6.80208 10.5 6.5 10.5C6.15625 10.5 5.83073 10.4349 5.52344 10.3047C5.22135 10.1745 4.95573 9.9974 4.72656 9.77344C4.5026 9.54427 4.32552 9.27865 4.19531 8.97656C4.0651 8.66927 4 8.34375 4 8C4 7.85417 4.01562 7.70573 4.04688 7.55469L1.98438 7.1875C1.88542 7.16667 1.79427 7.14844 1.71094 7.13281C1.6276 7.11719 1.54688 7.10156 1.46875 7.08594C1.39062 7.07031 1.3099 7.05729 1.22656 7.04688C1.14323 7.03125 1.05208 7.01562 0.953125 7C0.890625 6.99479 0.817708 6.99219 0.734375 6.99219C0.65625 6.98698 0.572917 6.98698 0.484375 6.99219C0.395833 6.99219 0.307292 6.99479 0.21875 7C0.135417 7 0.0625 7 0 7V3ZM6.5 9.5C6.68229 9.5 6.85677 9.46875 7.02344 9.40625C7.1901 9.34375 7.33854 9.25781 7.46875 9.14844C7.59896 9.03385 7.70833 8.90104 7.79688 8.75C7.88542 8.59896 7.94531 8.43229 7.97656 8.25L5.02344 7.72656C5.00781 7.82031 5 7.91146 5 8C5 8.20833 5.03906 8.40365 5.11719 8.58594C5.19531 8.76823 5.30208 8.92708 5.4375 9.0625C5.57292 9.19792 5.73177 9.30469 5.91406 9.38281C6.09635 9.46094 6.29167 9.5 6.5 9.5ZM15 1.50781L1 4V6C1.03646 6 1.0651 6.0026 1.08594 6.00781L15 8.49219V1.50781Z" fill="black"/>
</svg>
