<svg width="24" height="24" viewBox="0 0 24 24" fill="none" xmlns="http://www.w3.org/2000/svg">
<path fill-rule="evenodd" clip-rule="evenodd" d="M21.8387 5.15941C22.1793 5.51057 22.4212 5.94541 22.54 6.42C22.8572 8.1787 23.0112 9.96295 23 11.75C23.0063 13.5103 22.8524 15.2676 22.54 17C22.4212 17.4746 22.1793 17.9094 21.8387 18.2606C21.498 18.6118 21.0708 18.8668 20.6 19C18.88 19.46 12 19.46 12 19.46C12 19.46 5.12 19.46 3.4 19C2.93882 18.8738 2.51798 18.6308 2.17814 18.2945C1.83831 17.9581 1.59096 17.5398 1.46 17.08C1.14277 15.3213 0.988779 13.537 0.999999 11.75C0.991235 9.97631 1.14521 8.20556 1.46 6.46C1.57879 5.98541 1.82072 5.55057 2.16135 5.19941C2.50198 4.84824 2.92925 4.59318 3.4 4.46C5.12 4 12 4 12 4C12 4 18.88 4 20.6 4.42C21.0708 4.55318 21.498 4.80824 21.8387 5.15941ZM10.2443 7.61072C9.9348 7.43468 9.55499 7.43653 9.24718 7.61559C8.93937 7.79464 8.75 8.12388 8.75 8.47998V15.02C8.75 15.3761 8.93937 15.7053 9.24718 15.8844C9.55499 16.0634 9.9348 16.0653 10.2443 15.8892L15.9943 12.6192C16.3069 12.4415 16.5 12.1096 16.5 11.75C16.5 11.3904 16.3069 11.0585 15.9943 10.8807L10.2443 7.61072Z" fill="white"/>
</svg>
